<?xml version="1.0" encoding="UTF-8"?><svg width="500pt" height="500pt" version="1.2" viewBox="0 0 500 500" xmlns="http://www.w3.org/2000/svg" xmlns:cc="http://creativecommons.org/ns#" xmlns:dc="http://purl.org/dc/elements/1.1/" xmlns:rdf="http://www.w3.org/1999/02/22-rdf-syntax-ns#" xmlns:xlink="http://www.w3.org/1999/xlink"><metadata><rdf:RDF><cc:Work rdf:about=""><dc:format>image/svg+xml</dc:format><dc:type rdf:resource="http://purl.org/dc/dcmitype/StillImage"/><dc:title/></cc:Work></rdf:RDF></metadata><defs><symbol id="c" overflow="visible"><path d="m74.672-168.69 75.578 168.69h-20.469l-27.891-61.859c0 7.8047-1.2422 15.418-3.7188 22.844-2.4688 7.418-6.1055 14.055-10.906 19.906-4.793 5.8438-10.715 10.492-17.766 13.938-7.0547 3.4492-15.152 5.1719-24.297 5.1719-9.8984 0-18.371-2.1328-25.422-6.4062-7.043-4.2812-12.289-10.129-15.734-17.547-3.4492-7.4258-4.6445-15.863-3.5938-25.312 0.75-6.8945 2.5078-13.602 5.2812-20.125 2.7695-6.5195 6.0312-12.852 9.7812-19 3.75-6.1445 7.5-11.992 11.25-17.547 4.6445-6.8945 8.8047-13.488 12.484-19.781 3.6758-6.3008 6.7852-12.938 9.3281-19.906 2.5508-6.9766 4.3516-14.664 5.4062-23.062zm22.047 95.359-40.031-89.297c-1.6562 9.3047-4.3242 18.117-8 26.438-3.668 8.3242-7.9023 16.684-12.703 25.078-3.293 6-6.7422 12.414-10.344 19.234-3.5938 6.8242-6.5156 13.797-8.7656 20.922-2.25 7.1172-3 14.273-2.25 21.469 0.75 7.3438 3.1094 13.828 7.0781 19.453 3.9766 5.625 9.2656 9.7148 15.859 12.266 6.5938 2.5547 14.238 3.0781 22.938 1.5781 5.5508-0.90625 10.988-3.3789 16.312-7.4219 5.3203-4.0508 9.8945-8.9258 13.719-14.625 3.8203-5.6953 6.4062-11.617 7.75-17.766 1.3516-6.1562 0.83203-11.93-1.5625-17.328z"/></symbol><symbol id="b" overflow="visible"><path d="m0 0v-168.69h18.672v168.69z"/></symbol><symbol id="a" overflow="visible"><path d="m58.922 0c-6.1484 0-12.293-0.5625-18.438-1.6875-6.1484-1.125-11.996-2.9609-17.547-5.5156-3.5938-1.6445-7.3047-3.8516-11.125-6.625-3.8242-2.7812-7.0117-6.0391-9.5625-9.7812-2.5508-3.75-3.8281-7.8008-3.8281-12.156 0-4.9453 1.6484-9.1094 4.9531-12.484 3.3008-3.375 8.0977-5.0625 14.391-5.0625-2.3984 7.0547-2.8867 13.695-1.4688 19.922 1.4258 6.2188 4.2383 11.578 8.4375 16.078 4.8008 5.0938 10.875 8.7656 18.219 11.016 7.3516 2.25 15.078 3.1875 23.172 2.8125s15.773-1.9102 23.047-4.6094c7.2812-2.6953 13.242-6.2969 17.891-10.797 4.9453-4.9453 7.9844-10.117 9.1094-15.516 1.125-5.4062 0.67187-10.656-1.3594-15.75-2.0234-5.1016-5.3203-9.6758-9.8906-13.719-4.5742-4.0508-10.008-7.2031-16.297-9.4531-6.1562-2.25-12.949-4.0078-20.375-5.2812-7.418-1.2695-14.875-2.6914-22.375-4.2656-7.4922-1.582-14.5-3.832-21.031-6.75-6.5234-2.9258-12.027-7.0859-16.516-12.484-4.6562-5.6953-7.3594-12.219-8.1094-19.562-0.75-7.3516 0.52344-14.18 3.8281-20.484 2.6953-5.3945 6.4844-9.8164 11.359-13.266 4.875-3.4453 10.27-6.1445 16.188-8.0938 5.9258-1.9453 12-3.2969 18.219-4.0469 6.2266-0.75 12.039-1.125 17.438-1.125 6.1445 0 12.289 0.5625 18.438 1.6875 6.1562 1.125 12.004 2.9609 17.547 5.5 3.6016 1.6562 7.3164 3.9141 11.141 6.7656 3.8203 2.8438 7.0039 6.1055 9.5469 9.7812 2.5508 3.668 3.8281 7.6797 3.8281 12.031 0 5.0937-1.6523 9.3281-4.9531 12.703-3.293 3.375-8.0898 4.9844-14.391 4.8281 2.25-6.2891 2.8828-12.285 1.9062-17.984-0.96875-5.6953-3.1797-10.723-6.625-15.078-3.75-5.0938-8.8516-8.9883-15.297-11.688-6.4492-2.6953-13.387-4.3047-20.812-4.8281-7.418-0.53125-14.574 0.0273-21.469 1.6719-5.0938 1.0547-10.078 2.8906-14.953 5.5156s-9 5.9648-12.375 10.016c-3.375 4.043-5.3594 8.9141-5.9531 14.609-0.60547 6.3047 0.73828 11.516 4.0312 15.641 3.3008 4.1172 7.6875 7.4141 13.156 9.8906 5.4766 2.4805 11.066 4.4648 16.766 5.9531 7.0508 1.6562 14.625 3.125 22.719 4.4063 8.0938 1.2734 16 3.0312 23.719 5.2812 7.7266 2.2422 14.441 5.6875 20.141 10.344 5.5508 4.4922 9.75 9.7734 12.594 15.844 2.8516 6.0742 4.2031 12.375 4.0469 18.906-0.14844 6.5234-1.7969 12.781-4.9531 18.781-3.1484 5.9922-7.8672 11.086-14.156 15.281-7.3555 4.9609-15.793 8.3398-25.313 10.141-9.5234 1.793-18.406 2.6875-26.656 2.6875z"/></symbol></defs><g transform="translate(0,125)"><circle cx="250" cy="125" r="250" fill="#03363d" stroke-width=".91895"/><g transform="translate(55.234 -54.969)" fill="#e3d4bf"><use x="23.117027" y="264.31262" width="100%" height="100%" xlink:href="#c"/><use x="191.78885" y="264.31262" width="100%" height="100%" xlink:href="#b"/><use x="236.31821" y="264.31262" width="100%" height="100%" xlink:href="#a"/></g></g></svg>