<svg id="visual" viewBox="0 0 900 600" width="900" height="600" xmlns="http://www.w3.org/2000/svg" xmlns:xlink="http://www.w3.org/1999/xlink" version="1.1"><path d="M0 187L18.8 184C37.7 181 75.3 175 112.8 187C150.3 199 187.7 229 225.2 235C262.7 241 300.3 223 337.8 209C375.3 195 412.7 185 450.2 178C487.7 171 525.3 167 562.8 170C600.3 173 637.7 183 675.2 184C712.7 185 750.3 177 787.8 165C825.3 153 862.7 137 881.3 129L900 121L900 0L881.3 0C862.7 0 825.3 0 787.8 0C750.3 0 712.7 0 675.2 0C637.7 0 600.3 0 562.8 0C525.3 0 487.7 0 450.2 0C412.7 0 375.3 0 337.8 0C300.3 0 262.7 0 225.2 0C187.7 0 150.3 0 112.8 0C75.3 0 37.7 0 18.8 0L0 0Z" fill="#e8dfca"></path><path d="M0 325L18.8 314C37.7 303 75.3 281 112.8 284C150.3 287 187.7 315 225.2 321C262.7 327 300.3 311 337.8 313C375.3 315 412.7 335 450.2 324C487.7 313 525.3 271 562.8 274C600.3 277 637.7 325 675.2 341C712.7 357 750.3 341 787.8 314C825.3 287 862.7 249 881.3 230L900 211L900 119L881.3 127C862.7 135 825.3 151 787.8 163C750.3 175 712.7 183 675.2 182C637.7 181 600.3 171 562.8 168C525.3 165 487.7 169 450.2 176C412.7 183 375.3 193 337.8 207C300.3 221 262.7 239 225.2 233C187.7 227 150.3 197 112.8 185C75.3 173 37.7 179 18.8 182L0 185Z" fill="#e3d4bb"></path><path d="M0 463L18.8 472C37.7 481 75.3 499 112.8 507C150.3 515 187.7 513 225.2 511C262.7 509 300.3 507 337.8 511C375.3 515 412.7 525 450.2 532C487.7 539 525.3 543 562.8 543C600.3 543 637.7 539 675.2 530C712.7 521 750.3 507 787.8 500C825.3 493 862.7 493 881.3 493L900 493L900 209L881.3 228C862.7 247 825.3 285 787.8 312C750.3 339 712.7 355 675.2 339C637.7 323 600.3 275 562.8 272C525.3 269 487.7 311 450.2 322C412.7 333 375.3 313 337.8 311C300.3 309 262.7 325 225.2 319C187.7 313 150.3 285 112.8 282C75.3 279 37.7 301 18.8 312L0 323Z" fill="#d8c4a5"></path><path d="M0 601L18.8 601C37.7 601 75.3 601 112.8 601C150.3 601 187.7 601 225.2 601C262.7 601 300.3 601 337.8 601C375.3 601 412.7 601 450.2 601C487.7 601 525.3 601 562.8 601C600.3 601 637.7 601 675.2 601C712.7 601 750.3 601 787.8 601C825.3 601 862.7 601 881.3 601L900 601L900 491L881.3 491C862.7 491 825.3 491 787.8 498C750.3 505 712.7 519 675.2 528C637.7 537 600.3 541 562.8 541C525.3 541 487.7 537 450.2 530C412.7 523 375.3 513 337.8 509C300.3 505 262.7 507 225.2 509C187.7 511 150.3 513 112.8 505C75.3 497 37.7 479 18.8 470L0 461Z" fill="#c6ae89"></path></svg>